<?xml version="1.0" encoding="UTF-8" standalone="no"?><!DOCTYPE svg PUBLIC "-//W3C//DTD SVG 1.1//EN" "http://www.w3.org/Graphics/SVG/1.1/DTD/svg11.dtd"><svg width="100%" height="100%" viewBox="0 0 64 72" version="1.1" xmlns="http://www.w3.org/2000/svg" xmlns:xlink="http://www.w3.org/1999/xlink" xml:space="preserve" style="fill-rule:evenodd;clip-rule:evenodd;stroke-linecap:round;stroke-linejoin:round;stroke-miterlimit:1.41421;"><ellipse cx="31.745" cy="35.627" rx="6.375" ry="6.202" style="fill:#6ad1e6;"/><path d="M59.685,16.722c4.458,6.609 -4.449,20.424 -19.878,30.831c-15.428,10.408 -31.574,13.492 -36.032,6.883c-4.458,-6.609 4.449,-20.424 19.878,-30.831c15.428,-10.408 31.574,-13.492 36.032,-6.883Z" style="fill:none;stroke-width:3px;stroke:#6ad1e6;"/><path d="M31.769,69.299c-7.972,0.01 -14.461,-15.093 -14.482,-33.703c-0.023,-18.611 6.432,-33.728 14.404,-33.737c7.972,-0.01 14.461,15.093 14.482,33.703c0.023,18.611 -6.432,33.728 -14.404,33.737Z" style="fill:none;stroke-width:3px;stroke:#6ad1e6;"/><path d="M59.628,55.045c-4.738,6.767 -21.082,3.51 -36.476,-7.269c-15.394,-10.778 -24.045,-25.023 -19.306,-31.79c4.738,-6.767 21.083,-3.51 36.476,7.269c15.394,10.779 24.045,25.023 19.306,31.79Z" style="fill:none;stroke-width:3px;stroke:#6ad1e6;"/></svg>