<?xml version="1.0" encoding="UTF-8" standalone="no"?><!DOCTYPE svg PUBLIC "-//W3C//DTD SVG 1.1//EN" "http://www.w3.org/Graphics/SVG/1.1/DTD/svg11.dtd"><svg width="100%" height="100%" viewBox="0 0 70 60" version="1.1" xmlns="http://www.w3.org/2000/svg" xmlns:xlink="http://www.w3.org/1999/xlink" xml:space="preserve" style="fill-rule:evenodd;clip-rule:evenodd;stroke-linecap:round;stroke-linejoin:round;stroke-miterlimit:1.41421;"><g><g><path d="M12,24l6.562,-11.042l13.125,0l6.563,11.042l-6.562,11.042l-13.125,0l-6.563,-11.042Z" style="fill:none;stroke-width:3px;stroke:#6ad1e6;"/><path d="M12,46.5l6.562,-11.042l13.125,0l6.563,11.042l-6.562,11.042l-13.125,0l-6.563,-11.042Z" style="fill:none;stroke-width:3px;stroke:#6ad1e6;"/><path d="M31.5,35.25l6.563,-11.042l13.124,0l6.563,11.042l-6.563,11.042l-13.124,0l-6.563,-11.042Z" style="fill:#6ad1e6;stroke-width:3px;stroke:#6ad1e6;"/></g><path d="M2.25,46.5l9.75,0" style="fill:none;stroke-width:3px;stroke:#6ad1e6;"/><path d="M12.736,2.371l5.824,10.102" style="fill:none;stroke-width:3px;stroke:#6ad1e6;"/><path d="M37.655,2.33l-5.88,10.185" style="fill:none;stroke-width:3px;stroke:#6ad1e6;"/><path d="M57.75,35.25l9.75,0" style="fill:none;stroke-width:3px;stroke:#6ad1e6;"/></g></svg>