<svg xmlns="http://www.w3.org/2000/svg" xmlns:xlink="http://www.w3.org/1999/xlink" preserveAspectRatio="xMidYMid" width="9.594" height="20.78" viewBox="0 0 9.594 20.78">
  <defs>
    <style>
      .cls-1 {
        fill: #000;
        fill-rule: evenodd;
        transition: fill 250ms cubic-bezier(0.25,0.1,0.25,1) 250ms;
      }
      .cls-1:hover {
        fill: #fff;
      }
    </style>
  </defs>
  <path d="M6.311,6.232 L6.311,4.570 C6.311,3.759 6.846,3.571 7.221,3.571 C7.595,3.571 9.527,3.571 9.527,3.571 L9.527,0.008 L6.351,-0.006 C2.825,-0.006 2.024,2.652 2.024,4.353 L2.024,6.232 L-0.015,6.232 L-0.015,8.744 L-0.015,10.390 L2.041,10.390 C2.041,15.103 2.041,20.787 2.041,20.787 L6.153,20.787 C6.153,20.787 6.153,15.046 6.153,10.390 L9.204,10.390 L9.352,8.757 L9.579,6.232 L6.311,6.232 Z" class="cls-1"/>
</svg>
