<svg xmlns="http://www.w3.org/2000/svg" xmlns:xlink="http://www.w3.org/1999/xlink" preserveAspectRatio="xMidYMid" width="20.563" height="20.78" viewBox="0 0 20.563 20.78">
  <defs>
    <style>
      .cls-1 {
        fill: #000;
        fill-rule: evenodd;
        transition: fill 250ms cubic-bezier(0.25,0.1,0.25,1) 250ms;
      }
      .cls-1:hover {
        fill: #fff;
      }
    </style>
  </defs>
  <path d="M20.552,13.160 L20.552,20.777 L16.440,20.777 L16.440,14.024 C16.440,12.412 16.264,10.341 14.081,10.341 C11.865,10.341 11.527,12.095 11.527,13.907 L11.527,20.777 L7.533,20.777 L7.533,9.575 L7.533,6.916 L11.354,6.916 L11.354,8.786 L11.413,8.786 C11.982,7.694 13.373,6.916 15.444,6.916 C18.937,6.916 20.123,8.559 20.448,11.172 C20.524,11.784 20.553,12.449 20.553,13.160 L20.552,13.160 ZM-0.005,10.594 L-0.005,6.916 L4.792,6.916 L4.792,9.775 L4.792,20.777 L-0.005,20.777 L-0.005,10.594 ZM2.394,4.836 C1.069,4.836 -0.005,3.750 -0.005,2.411 C-0.005,1.071 1.069,-0.015 2.394,-0.015 C3.718,-0.015 4.792,1.071 4.792,2.411 C4.792,3.750 3.718,4.836 2.394,4.836 Z" class="cls-1"/>
</svg>
