<?xml version="1.0" encoding="UTF-8" standalone="no"?><!DOCTYPE svg PUBLIC "-//W3C//DTD SVG 1.1//EN" "http://www.w3.org/Graphics/SVG/1.1/DTD/svg11.dtd"><svg width="100%" height="100%" viewBox="0 0 38 36" version="1.1" xmlns="http://www.w3.org/2000/svg" xmlns:xlink="http://www.w3.org/1999/xlink" xml:space="preserve" style="fill-rule:evenodd;clip-rule:evenodd;stroke-linejoin:round;stroke-miterlimit:1.41421;"><g><path d="M19.774,35.631c-0.662,0.239 -1.386,0.239 -2.048,0c-3.197,-1.151 -12.983,-4.674 -16.473,-5.93c-0.752,-0.271 -1.253,-0.984 -1.253,-1.782c0,-4.82 0,-21.337 0,-26.419c0,-0.828 0.672,-1.5 1.5,-1.5c6.03,0 28.47,0 34.5,0c0.828,0 1.5,0.672 1.5,1.5c0,5.079 0,21.578 0,26.409c0,0.805 -0.505,1.523 -1.262,1.795c-3.497,1.259 -13.27,4.777 -16.464,5.927Z" style="fill:#f96900;"/><g><rect x="16.5" y="5.25" width="4.5" height="21" style="fill:#fff;"/><rect x="8.25" y="13.5" width="21" height="4.5" style="fill:#fff;"/></g></g></svg>