<?xml version="1.0" encoding="UTF-8" standalone="no"?><!DOCTYPE svg PUBLIC "-//W3C//DTD SVG 1.1//EN" "http://www.w3.org/Graphics/SVG/1.1/DTD/svg11.dtd"><svg width="100%" height="100%" viewBox="0 0 70 58" version="1.1" xmlns="http://www.w3.org/2000/svg" xmlns:xlink="http://www.w3.org/1999/xlink" xml:space="preserve" style="fill-rule:evenodd;clip-rule:evenodd;stroke-linecap:round;stroke-linejoin:round;stroke-miterlimit:1.41421;"><g><g><g><path d="M58.893,50.764l-4.846,-6.844l2.719,-1.267l2.127,8.111Z" style="fill:#fff;"/><circle cx="55.5" cy="43.5" r="1.5" style="fill:#fff;"/></g><g><path d="M62.18,13.15c0,0 -6.161,-3.557 -10.392,-6c-2.152,-1.243 -4.904,-0.505 -6.147,1.647c-4.243,7.35 -13.382,23.178 -17.625,30.527c-1.243,2.153 -0.505,4.905 1.647,6.148c4.231,2.442 10.392,6 10.392,6l22.125,-38.322Z" style="fill:#fff;"/><path d="M51.59,51.732l-17.304,-9.991l-2.746,4.755c0,0 8.305,4.795 13.408,7.741c2.152,1.243 4.904,0.505 6.147,-1.647c0.294,-0.509 0.495,-0.858 0.495,-0.858Z" style="fill:#fff;"/><path d="M68.169,21.904c1.243,-2.152 0.505,-4.904 -1.647,-6.147c-4.617,-2.666 -11.691,-6.75 -11.691,-6.75l-10.353,17.932l15.588,9c0,0 5.058,-8.76 8.103,-14.035Z" style="fill:#fff;"/><rect x="51" y="29.25" width="2.25" height="3" style="fill:#fff;"/><rect x="41.25" y="45" width="3" height="3" style="fill:#fff;"/><circle id="_-Ellipse-" cx="55.5" cy="43.5" r="10.5" style="fill:none;stroke-width:4px;stroke:#fff;"/></g></g><path d="M13.854,30.496c1.76,-3.047 0.714,-6.949 -2.333,-8.708c-3.047,-1.76 -6.949,-0.714 -8.708,2.333l-1.876,3.248c-1.759,3.047 -0.713,6.949 2.334,8.708c3.047,1.759 6.949,0.714 8.708,-2.333l1.875,-3.248Z" style="fill:#fff;"/><path d="M9.75,24.75c2.957,-5.027 7.841,-15.244 10.5,-18.75c1.071,-1.412 3.83,-2.999 5.845,-2.997c1.644,0.002 3.426,0.279 4.655,0.747c1.2,0.457 2.512,1.805 3.444,3.436c1.015,1.779 0.83,3.895 0.306,5.564c-2,6.375 -11.811,21.638 -15,27.75c-0.835,1.6 -2.009,3.55 -2.255,5.38c-0.269,2.006 0.756,4.391 3.005,6.62c1.995,1.977 5.629,2.386 8.25,1.5c3.128,-1.058 6.543,-7.353 8.25,-10.5" style="fill:none;stroke-width:5px;stroke:#fff;"/></g></svg>