<?xml version="1.0" encoding="UTF-8" standalone="no"?><!DOCTYPE svg PUBLIC "-//W3C//DTD SVG 1.1//EN" "http://www.w3.org/Graphics/SVG/1.1/DTD/svg11.dtd"><svg width="100%" height="100%" viewBox="0 0 31 31" version="1.1" xmlns="http://www.w3.org/2000/svg" xmlns:xlink="http://www.w3.org/1999/xlink" xml:space="preserve" style="fill-rule:evenodd;clip-rule:evenodd;stroke-linejoin:round;stroke-miterlimit:1.41421;"><path id="Forma-1" d="M15.375,0c-8.478,0 -15.375,6.897 -15.375,15.375c0,8.478 6.897,15.375 15.375,15.375c8.478,0 15.375,-6.897 15.375,-15.375c0,-8.478 -6.897,-15.375 -15.375,-15.375ZM15.375,29.652c-7.873,0 -14.277,-6.405 -14.277,-14.277c0,-7.872 6.404,-14.277 14.277,-14.277c7.873,0 14.277,6.405 14.277,14.277c0,7.872 -6.404,14.277 -14.277,14.277ZM21.964,20.866c0.304,0.001 0.549,0.246 0.549,0.549c0,0.303 -0.245,0.549 -0.549,0.549l-13.178,0c-0.304,0 -0.549,-0.246 -0.549,-0.549c0,-0.303 0.245,-0.548 0.549,-0.549l13.178,0ZM21.964,14.826c0.304,0 0.549,0.246 0.549,0.549c0,0.303 -0.245,0.549 -0.549,0.549l-13.178,0c-0.304,0 -0.549,-0.246 -0.549,-0.549c0,-0.303 0.245,-0.549 0.549,-0.549l13.178,0ZM21.964,8.786c0.304,0 0.549,0.246 0.549,0.549c0,0.303 -0.245,0.548 -0.549,0.549l-13.178,0c-0.304,0 -0.549,-0.246 -0.549,-0.549c0,-0.303 0.245,-0.549 0.549,-0.549l13.178,0Z" style="fill:#fff;"/></svg>