<svg xmlns="http://www.w3.org/2000/svg" xmlns:xlink="http://www.w3.org/1999/xlink" preserveAspectRatio="xMidYMid" width="20.563" height="16.63" viewBox="0 0 20.563 16.63">
  <defs>
    <style>
      .cls-1 {
        fill: #000;
        fill-rule: evenodd;
        transition: fill 250ms cubic-bezier(0.25,0.1,0.25,1) 250ms;
      }
      .cls-1:hover {
        fill: #fff;
      }
    </style>
  </defs>
  <path d="M20.561,1.966 C19.805,2.300 18.993,2.525 18.139,2.626 C19.011,2.107 19.678,1.284 19.994,0.303 C19.180,0.785 18.276,1.134 17.315,1.323 C16.547,0.506 15.450,-0.004 14.237,-0.004 C11.908,-0.004 10.020,1.877 10.020,4.196 C10.020,4.525 10.058,4.844 10.128,5.152 C6.623,4.977 3.515,3.305 1.435,0.765 C1.073,1.385 0.864,2.107 0.864,2.876 C0.864,4.332 1.610,5.617 2.740,6.371 C2.050,6.349 1.398,6.160 0.830,5.846 C0.830,5.863 0.830,5.881 0.830,5.898 C0.830,6.436 0.933,6.948 1.118,7.420 C1.634,8.737 2.793,9.732 4.214,10.017 C3.859,10.112 3.487,10.165 3.101,10.165 C2.830,10.165 2.566,10.138 2.308,10.088 C2.846,11.756 4.403,12.971 6.248,13.004 C4.804,14.131 2.987,14.803 1.009,14.803 C0.668,14.803 0.334,14.783 0.002,14.744 C1.870,15.935 4.088,16.630 6.468,16.630 C13.062,16.630 17.114,12.010 18.183,7.217 C18.372,6.370 18.469,5.517 18.469,4.682 C18.469,4.502 18.466,4.319 18.458,4.139 C19.281,3.548 19.997,2.808 20.561,1.966 Z" class="cls-1"/>
</svg>
