<?xml version="1.0" encoding="UTF-8" standalone="no"?><!DOCTYPE svg PUBLIC "-//W3C//DTD SVG 1.1//EN" "http://www.w3.org/Graphics/SVG/1.1/DTD/svg11.dtd"><svg width="100%" height="100%" viewBox="0 0 67 70" version="1.1" xmlns="http://www.w3.org/2000/svg" xmlns:xlink="http://www.w3.org/1999/xlink" xml:space="preserve" style="fill-rule:evenodd;clip-rule:evenodd;stroke-linejoin:round;stroke-miterlimit:1.41421;"><g id="Layer1"><circle cx="10.125" cy="63.375" r="10.125" style="fill:#6ad1e6;"/><circle cx="56.625" cy="63.375" r="10.125" style="fill:#6ad1e6;"/><circle cx="29.625" cy="17.625" r="17.625" style="fill:#6ad1e6;"/><circle cx="37.125" cy="17.625" r="17.625" style="fill:#6ad1e6;"/><circle cx="7.125" cy="42.375" r="4.875" style="fill:#6ad1e6;"/><circle cx="59.625" cy="42.375" r="4.875" style="fill:#6ad1e6;"/><path d="M2.704,40.859c4.649,2.03 9.779,-1.892 12.372,-7.83c2.573,-5.891 1.689,-13.043 -2.866,-15.138c-0.026,-0.011 -0.055,-0.01 -0.079,0.004c-0.024,0.013 -0.041,0.038 -0.044,0.066c-0.4,3.131 -1.806,8.255 -3.657,12.493c-1.874,4.292 -4.77,7.892 -5.726,10.405Z" style="fill:#6ad1e6;"/><path d="M54.174,14.256c-4.792,1.666 -5.896,11.028 -3.769,17.148c2.11,6.072 8.354,9.985 13.132,8.419c0.026,-0.008 0.047,-0.029 0.055,-0.056c0.009,-0.027 0.004,-0.056 -0.012,-0.078c-1.834,-2.56 -4.363,-6.83 -6.546,-10.906c-2.58,-4.816 -2.324,-11.973 -2.86,-14.527Z" style="fill:#6ad1e6;"/><path d="M57,29.25l-47.25,0l-3,18l53.25,0l-3,-18Z" style="fill:#6ad1e6;"/><rect x="11.25" y="53.25" width="45" height="11.25" style="fill:#6ad1e6;"/><rect x="0" y="63" width="66.75" height="9" style="fill:#6ad1e6;"/><path d="M60.75,54.185l-54.75,0c16.803,-7.42 14.71,-6.793 13.875,-7.12l27.75,0c-3.831,-0.135 1.383,2.175 13.125,7.12Z" style="fill:#6ad1e6;"/></g></svg>